<svg viewBox="0 0 44 30" fill="none" xmlns="http://www.w3.org/2000/svg"><title>Afterpay</title>
  <path d="M40.5263 0H3.47368C1.55522 0 0 1.67893 0 3.75V26.25C0 28.3211 1.55522 30 3.47368 30H40.5263C42.4448 30 44 28.3211 44 26.25V3.75C44 1.67893 42.4448 0 40.5263 0Z" fill="#B2FCE4"></path>
  <path d="M42.2731 12.6222L41.0457 11.9106L39.8184 11.1639C39.4348 10.9435 38.9638 10.9455 38.5821 11.1691C38.2003 11.3926 37.9655 11.804 37.9657 12.2489V12.4006C37.9656 12.4892 38.009 12.5721 38.0815 12.6222L38.6605 12.9489C38.7153 12.9818 38.7812 12.9904 38.8426 12.9728C38.9039 12.9551 38.9554 12.9127 38.9847 12.8556C38.995 12.8174 38.995 12.7771 38.9847 12.7389V12.3656C38.9815 12.3006 39.0042 12.237 39.0476 12.1888C39.0911 12.1407 39.1517 12.1119 39.2162 12.1089H39.3552L40.5131 12.7739L41.671 13.4272C41.7881 13.5022 41.8241 13.6578 41.752 13.7772L41.671 13.8589L40.5131 14.5122L39.3552 15.1772C39.3 15.2116 39.2335 15.2223 39.1704 15.2069C39.1073 15.1916 39.053 15.1515 39.0194 15.0956C39.0076 15.0497 39.0076 15.0015 39.0194 14.9556V14.7689C39.0196 14.324 38.7848 13.9126 38.4031 13.6891C38.0213 13.4655 37.5503 13.4635 37.1668 13.6839L35.9162 14.4072L34.6889 15.1189C34.0993 15.4644 33.8933 16.2222 34.2257 16.8222C34.3323 17.0195 34.4931 17.1815 34.6889 17.2889L35.9162 18.0006L37.1668 18.7122C37.5503 18.9326 38.0213 18.9306 38.4031 18.7071C38.7848 18.4835 39.0196 18.0721 39.0194 17.6272V17.4756C39.0195 17.3869 38.9762 17.304 38.9036 17.2539L38.3247 16.9156C38.2698 16.8827 38.2039 16.874 38.1426 16.8917C38.0812 16.9094 38.0298 16.9518 38.0005 17.0089C37.9902 17.051 37.9902 17.0951 38.0005 17.1372V17.5106C38.0036 17.5756 37.981 17.6391 37.9375 17.6873C37.8941 17.7355 37.8334 17.7642 37.7689 17.7672C37.7231 17.7777 37.6757 17.7777 37.6299 17.7672L36.472 17.1022L35.3141 16.4489C35.1929 16.3908 35.1372 16.2479 35.1868 16.1222L35.2678 16.0406L36.4257 15.3872L37.5836 14.7222C37.6388 14.6879 37.7053 14.6772 37.7684 14.6925C37.8315 14.7079 37.8858 14.748 37.9194 14.8039C37.9312 14.8498 37.9312 14.898 37.9194 14.9439V15.1306C37.9192 15.5755 38.154 15.9868 38.5357 16.2104C38.9175 16.434 39.3885 16.4359 39.772 16.2156L41.0226 15.4922L42.2499 14.7806C42.5295 14.6072 42.7286 14.3282 42.8025 14.006C42.8765 13.6837 42.8193 13.345 42.6436 13.0656C42.5591 12.8887 42.4316 12.7363 42.2731 12.6222Z" fill="black"></path>
  <path d="M34.1911 12.8322L31.308 18.8289H30.1501L31.2269 16.5889L29.5364 12.8322H30.7637L31.8522 15.3406L33.0101 12.8322H34.1911Z" fill="black"></path>
  <path fill-rule="evenodd" clip-rule="evenodd" d="M5.37109 16.5305V17.0905H6.37846V12.8322H5.34793V13.3689C5.02201 12.974 4.53763 12.7471 4.02794 12.7505C3.46888 12.7718 2.94116 13.0161 2.56107 13.4297C2.18097 13.8434 1.9797 14.3923 2.00162 14.9555V15.0255C1.9892 15.5794 2.19574 16.1156 2.57577 16.516C2.95581 16.9164 3.47819 17.1483 4.02794 17.1605C4.54691 17.1648 5.04021 16.9334 5.37109 16.5305ZM4.17652 13.8478C4.80795 13.8269 5.3395 14.3198 5.37109 14.9555V15.0139C5.37109 15.6582 4.85269 16.1805 4.2132 16.1805C3.58143 16.1797 3.0669 15.6688 3.0569 15.0323C3.04689 14.3959 3.54509 13.8688 4.17652 13.8478Z" fill="black"></path>
  <path d="M11.4732 16.1222C11.1027 16.1222 11.0101 15.9822 11.0101 15.6322V13.7889H11.6701V12.8672H11.0101V11.7939H9.94482V12.8322H8.55534V12.4006C8.55534 12.0506 8.69429 11.9106 9.06482 11.9106H9.2964V11.0822H8.7985C7.9185 11.0822 7.50166 11.3739 7.50166 12.2489V12.8206H6.91113V13.7889H7.50166V17.1256H8.55534V13.7889H9.94482V15.8772C9.94482 16.7522 10.269 17.1256 11.1027 17.1256H11.6817V16.1222H11.4732Z" fill="black"></path>
  <path fill-rule="evenodd" clip-rule="evenodd" d="M14.2754 16.2272C13.7062 16.2474 13.2241 15.8082 13.1869 15.2356L16.4059 15.2239C16.4174 15.1348 16.4174 15.0446 16.4059 14.9556C16.4059 13.7378 15.4261 12.7506 14.2175 12.7506C13.0088 12.7506 12.0291 13.7378 12.0291 14.9556V15.2122C12.1094 16.3686 13.1045 17.2407 14.2522 17.1606C15.2104 17.218 16.0824 16.6049 16.3596 15.6789H15.2712C15.057 16.0243 14.6795 16.2321 14.2754 16.2272ZM14.2406 13.6956C14.7644 13.6663 15.2228 14.047 15.2943 14.5706H13.1754C13.2574 14.0481 13.7162 13.6712 14.2406 13.6956Z" fill="black"></path>
  <path fill-rule="evenodd" clip-rule="evenodd" d="M19.8679 12.8322V18.8288H20.9679V16.5888C21.2919 16.9608 21.7621 17.17 22.2532 17.1605C22.8122 17.1393 23.34 16.8949 23.7201 16.4813C24.1001 16.0677 24.3014 15.5188 24.2795 14.9555V14.8738C24.2888 14.32 24.0793 13.785 23.6971 13.3868C23.3149 12.9886 22.7913 12.7597 22.2416 12.7505C21.7226 12.7463 21.2293 12.9776 20.8984 13.3805V12.8322H19.8679ZM22.0422 13.8181C22.676 13.8101 23.1984 14.3171 23.2142 14.9555V15.0138C23.1984 15.6523 22.676 16.1592 22.0422 16.1512C21.4084 16.1433 20.8988 15.6233 20.8988 14.9847C20.8988 14.346 21.4084 13.8261 22.0422 13.8181Z" fill="black"></path>
  <path fill-rule="evenodd" clip-rule="evenodd" d="M28.031 16.5305V17.0905H29.0384V12.8322H27.9963V13.3689C27.675 12.9745 27.1942 12.7473 26.6878 12.7505C26.1288 12.7718 25.6011 13.0161 25.221 13.4297C24.8409 13.8434 24.6396 14.3923 24.6615 14.9555V15.0372C24.6522 15.5911 24.8617 16.126 25.2439 16.5242C25.6261 16.9224 26.1497 17.1513 26.6994 17.1605C27.2155 17.1663 27.7058 16.9343 28.031 16.5305ZM26.8548 13.8489C27.4788 13.8381 27.999 14.3276 28.031 14.9555V15.0139C28.031 15.6582 27.5126 16.1805 26.8731 16.1805H26.8152C26.192 16.1483 25.7062 15.6241 25.7169 14.9954C25.7276 14.3667 26.2308 13.8597 26.8548 13.8489Z" fill="black"></path>
  <path d="M17.9921 13.2522C18.1879 12.9343 18.5354 12.7437 18.9068 12.7506C19.0624 12.7465 19.2169 12.7784 19.3584 12.8439V13.9406C19.1327 13.8004 18.8706 13.7314 18.6057 13.7422C18.2279 13.824 17.9759 14.1846 18.0268 14.5706V17.0906H16.95V12.8322H17.9921V13.2522Z" fill="black"></path>
  </svg>