<svg viewBox="0 0 47 30" fill="none" xmlns="http://www.w3.org/2000/svg">
<title>Apple Pay</title><path d="M42.6623 0H3.72736H3.32264C3.02774 0.00336661 2.73352 0.0289104 2.44245 0.0764151C2.14678 0.127393 1.86052 0.222813 1.5934 0.359434C1.06316 0.629301 0.632131 1.06033 0.362264 1.59057C0.225441 1.85761 0.130011 2.1439 0.0792453 2.43962C0.0306534 2.7306 0.00416256 3.02484 0 3.31981C0 3.45566 0 3.60283 0 3.72453C0 3.84623 0 4.04434 0 4.20566V25.7943C0 25.9557 0 26.1142 0 26.2755C0 26.4368 0 26.5585 0 26.6802C0.00415173 26.9752 0.0306426 27.2694 0.0792453 27.5604C0.130011 27.8561 0.225441 28.1424 0.362264 28.4094C0.632131 28.9397 1.06316 29.3707 1.5934 29.6406C1.86045 29.7773 2.14674 29.8728 2.44245 29.9236C2.73354 29.9709 3.02775 29.9965 3.32264 30H3.72736H43.1406H43.5453C43.8402 29.9964 44.1344 29.9709 44.4255 29.9236C44.7212 29.8727 45.0075 29.7773 45.2745 29.6406C45.8048 29.3707 46.2358 28.9397 46.5057 28.4094C46.6427 28.1425 46.7382 27.8562 46.7887 27.5604C46.8363 27.2693 46.8619 26.9751 46.8651 26.6802C46.8651 26.5462 46.8651 26.4113 46.8651 26.2755C46.8651 26.1142 46.8651 25.9557 46.8651 25.7943V4.18585C46.8651 4.02453 46.8651 3.86604 46.8651 3.70472C46.8651 3.5434 46.8651 3.4217 46.8651 3.3C46.8619 3.0051 46.8363 2.71086 46.7887 2.41981C46.7382 2.12402 46.6427 1.83769 46.5057 1.57075C46.231 1.04702 45.7982 0.623169 45.2689 0.359434C45.0017 0.222853 44.7155 0.127436 44.4198 0.0764151C44.1287 0.0289739 43.8345 0.00343054 43.5396 0H43.1349H42.6623Z" fill="#231F20"></path>
<path d="M42.6622 0.999054H43.1349H43.5198C43.7644 1.00191 44.0084 1.02272 44.25 1.06132C44.4468 1.09379 44.6377 1.15581 44.816 1.24528C45.1576 1.41991 45.4351 1.69835 45.6085 2.04056C45.6975 2.21886 45.7585 2.40977 45.7896 2.6066C45.8283 2.84813 45.8491 3.09219 45.8519 3.33679C45.8519 3.46415 45.8519 3.59151 45.8519 3.7217C45.8519 3.85188 45.8519 4.03585 45.8519 4.19434V25.7943C45.8519 25.9528 45.8519 26.1085 45.8519 26.2698C45.8519 26.4311 45.8519 26.5245 45.8519 26.6519C45.8493 26.8974 45.8285 27.1424 45.7896 27.3849C45.7587 27.5818 45.6976 27.7727 45.6085 27.9509C45.4343 28.2936 45.1558 28.5721 44.8132 28.7462C44.635 28.836 44.4441 28.8981 44.2471 28.9302C44.0065 28.9683 43.7634 28.9891 43.5198 28.9925H43.1292H3.73016H3.34809C3.10351 28.9893 2.85949 28.9684 2.6179 28.9302C2.42097 28.898 2.2301 28.8359 2.05186 28.7462C1.7107 28.5723 1.43331 28.2949 1.25941 27.9538C1.16965 27.7755 1.10762 27.5847 1.07545 27.3877C1.03666 27.1462 1.01585 26.9021 1.01318 26.6575C1.01318 26.5302 1.01318 26.4028 1.01318 26.2755V3.7217C1.01318 3.59434 1.01318 3.46698 1.01318 3.33679C1.01573 3.09124 1.03654 2.84623 1.07545 2.60377C1.10757 2.40682 1.16961 2.21594 1.25941 2.03773C1.43331 1.69657 1.7107 1.41918 2.05186 1.24528C2.2302 1.15581 2.42103 1.09379 2.6179 1.06132C2.85944 1.02269 3.1035 1.00188 3.34809 0.999054H3.73016H42.6622" fill="white"></path>
<path d="M12.3254 10.1292C12.7549 9.61431 12.968 8.95281 12.9197 8.28397C12.2614 8.34765 11.6531 8.66296 11.2216 9.16415C10.7876 9.6495 10.5673 10.2891 10.6103 10.9387C11.2767 10.9504 11.9107 10.6512 12.3254 10.1292Z" fill="#231F20"></path>
<path d="M12.9142 11.0604C11.966 11.0038 11.1594 11.5981 10.7094 11.5981C10.2594 11.5981 9.57736 11.0887 8.81321 11.1028C7.82054 11.1272 6.91544 11.6768 6.43585 12.5462C5.41699 14.3009 6.16699 16.9047 7.15755 18.334C7.63868 19.0415 8.21887 19.8198 8.98302 19.7915C9.74717 19.7632 9.98774 19.3245 10.8651 19.3245C11.7425 19.3245 11.9972 19.7915 12.7613 19.7774C13.5255 19.7632 14.0491 19.0698 14.5302 18.3623C14.8715 17.8609 15.1384 17.3128 15.3226 16.7349C14.3927 16.3293 13.7883 15.4146 13.7802 14.4C13.793 13.5041 14.2627 12.6768 15.0255 12.2066C14.5365 11.5224 13.7575 11.1041 12.917 11.0745" fill="#231F20"></path>
<path fill-rule="evenodd" clip-rule="evenodd" d="M25.8566 12.5745C25.8566 10.5028 24.4217 9.08774 22.3613 9.08774H18.3821V19.7038H20.0292V16.0726H22.3104C24.3934 16.0726 25.8566 14.6462 25.8566 12.5745ZM21.9198 14.6943H20.0292V10.4802H21.9396C23.3689 10.4802 24.184 11.2443 24.184 12.583C24.184 13.9217 23.3547 14.6943 21.9198 14.6943Z" fill="#231F20"></path>
<path fill-rule="evenodd" clip-rule="evenodd" d="M29.2132 15.2406C27.3028 15.3651 26.2642 16.1434 26.2642 17.5047C26.2642 18.8717 27.3311 19.783 28.8538 19.783C29.8532 19.8154 30.7895 19.2956 31.2906 18.4302H31.3274V19.7038H32.85V14.4198C32.85 12.8887 31.6189 11.9038 29.7368 11.9038C27.9849 11.9038 26.6915 12.9057 26.6462 14.2811H28.1321C28.2566 13.6274 28.8594 13.2 29.6915 13.2C30.6991 13.2 31.2651 13.6811 31.2651 14.5302V15.116L29.2132 15.2406ZM31.2679 16.2226V16.8198C31.2679 17.8132 30.4217 18.5264 29.3038 18.5406C28.4349 18.5406 27.8689 18.1557 27.8689 17.4736C27.8689 16.7915 28.4066 16.4066 29.4368 16.3415L31.2679 16.2226Z" fill="#231F20"></path>
<path d="M34.248 22.5425V21.2689C34.4097 21.2865 34.5722 21.2959 34.7348 21.2972C35.4622 21.2972 35.8669 20.9887 36.1245 20.1934L36.2716 19.7236L33.4839 12H35.2046L37.1462 18.2689H37.1829L39.1245 12H40.8028L37.9103 20.1142C37.248 21.9764 36.4952 22.5849 34.8877 22.5849C34.6737 22.5859 34.46 22.5718 34.248 22.5425Z" fill="#231F20"></path>
</svg>