<svg viewBox="0 0 44 30" fill="none" xmlns="http://www.w3.org/2000/svg">
<title>Master Card</title><path d="M17.1841 7.20731H26.2149V23.4371H17.1841L17.1841 7.20731Z" fill="#FF5F00"/>
<path d="M17.757 15.3239C17.7538 12.1565 19.2076 9.16359 21.6993 7.20808C17.4676 3.88208 11.3904 4.36635 7.73872 8.32054C4.08709 12.2747 4.08709 18.3712 7.73872 22.3254C11.3904 26.2796 17.4676 26.7638 21.6993 23.4378C19.2085 21.4825 17.7551 18.4905 17.7579 15.3239H17.757Z" fill="#EB001B"/>
<path d="M38.3998 15.3241C38.3997 19.2758 36.1433 22.8806 32.5889 24.6075C29.0345 26.3344 24.8061 25.8803 21.6995 23.438C24.1895 21.4812 25.6434 18.4896 25.6434 15.3227C25.6434 12.1557 24.1895 9.16411 21.6995 7.20732C24.8061 4.76501 29.0345 4.31088 32.5889 6.03781C36.1433 7.76474 38.3997 11.3695 38.3998 15.3213V15.3241Z" fill="#F79E1B"/>
</svg>
