<svg width="40" height="40" viewBox="0 0 40 40" fill="none" xmlns="http://www.w3.org/2000/svg">
<mask id="mask0_1107_131" style="mask-type:luminance" maskUnits="userSpaceOnUse" x="5" y="2" width="33" height="38">
<path d="M5.88 2.5H37.005V40H5.88V2.5Z" fill="white"/>
</mask>
<g mask="url(#mask0_1107_131)">
<path d="M32.4283 11.125C32.4283 15.77 28.1417 21.25 21.6558 21.25H15.4083L15.1017 23.185L13.6442 32.5H5.88L10.5508 2.5H23.13C27.3658 2.5 30.6983 4.86083 31.9258 8.14167C32.2799 9.09556 32.4503 10.1078 32.4283 11.125Z" fill="#002991"/>
<path d="M36.9033 19.75C36.4889 22.2678 35.192 24.556 33.2447 26.205C31.2973 27.854 28.8267 28.7562 26.275 28.75H21.9367L20.1308 40H12.4083L13.6442 32.5L15.1025 23.185L15.4083 21.25H21.6558C28.1333 21.25 32.4283 15.77 32.4283 11.125C35.6158 12.77 37.4742 16.0942 36.9033 19.75Z" fill="#60CDFF"/>
<path d="M32.4283 11.125C31.0917 10.4258 29.4708 10 27.7067 10H17.1733L15.4083 21.25H21.6558C28.1333 21.25 32.4283 15.77 32.4283 11.125Z" fill="#008CFF"/>
</g>
</svg>
