<svg viewBox="0 0 44 30" fill="none" xmlns="http://www.w3.org/2000/svg"><title>Visa</title>
<path fill-rule="evenodd" clip-rule="evenodd" d="M22.2913 8.24118L19.4177 21.4277H15.9435L18.8173 8.24118H22.2913ZM36.9094 16.7558L38.7387 11.804L39.7914 16.7558H36.9094ZM40.7861 21.4277H44L41.1956 8.24118H38.2288C37.5625 8.24118 37 8.62191 36.7499 9.20863L31.5372 21.4277H35.1854L35.91 19.4586H40.3677L40.7861 21.4277ZM31.7183 17.1224C31.733 13.6419 26.8155 13.4502 26.8497 11.8954C26.8599 11.4223 27.3191 10.9194 28.3231 10.7906C28.8217 10.7267 30.1928 10.6776 31.7495 11.381L32.3591 8.58477C31.5232 8.28652 30.447 8 29.109 8C25.675 8 23.2574 9.79263 23.2371 12.3594C23.2154 14.2576 24.9625 15.3165 26.2794 15.9478C27.6327 16.5943 28.0876 17.0083 28.0818 17.5862C28.0728 18.4716 27.0018 18.8615 26.0029 18.877C24.2556 18.9041 23.2419 18.4139 22.4337 18.0442L21.804 20.9334C22.6158 21.2997 24.1141 21.6177 25.6686 21.6341C29.3182 21.6341 31.7063 19.8634 31.7183 17.1224V17.1224ZM17.3264 8.24118L11.697 21.4277H8.02371L5.2538 10.9039C5.08539 10.2556 4.93927 10.0186 4.42745 9.74552C3.59333 9.30069 2.21375 8.88322 1 8.62425L1.08301 8.24118H6.9949C7.74839 8.24118 8.42624 8.73351 8.59724 9.58545L10.0604 17.2166L13.6762 8.24118H17.3264V8.24118Z" fill="#182E66"/>
</svg>
